<svg width="42" height="42" viewBox="0 0 42 42" fill="none" xmlns="http://www.w3.org/2000/svg">
<g clip-path="url(#clip0_587_1241)">
<path d="M6.61634 33.474C6.61634 32.8785 6.60166 32.2831 6.62123 31.6888C6.63591 31.2328 6.42549 30.9845 6.00342 30.8562C4.85222 30.5065 3.69979 30.1568 2.55592 29.7838C0.84808 29.2275 -0.129404 27.7615 0.0210727 26.0032C0.0810185 25.2977 0.384418 24.69 0.808932 24.1349C1.47568 23.2619 2.12774 22.3779 2.80672 21.5147C3.08932 21.1564 3.09544 20.8556 2.81161 20.4937C2.1412 19.6427 1.49403 18.7746 0.841963 17.9101C-0.809605 15.719 0.0589975 13.012 2.68071 12.1817C3.74138 11.8455 4.80573 11.5227 5.8664 11.1914C6.51602 10.9884 6.61634 10.8527 6.61634 10.1838C6.61634 9.13109 6.61267 8.07834 6.61634 7.02559C6.62857 4.53127 8.86736 2.82315 11.2823 3.48708C12.3834 3.79031 13.4685 4.15345 14.5598 4.49092C15.4431 4.7648 15.5605 4.72935 16.1086 4.00795C16.7093 3.2193 17.3063 2.42699 17.9094 1.64079C19.5879 -0.551527 22.4176 -0.546636 24.0948 1.65179C24.7432 2.50035 25.399 3.3428 26.029 4.2048C26.3385 4.62786 26.7043 4.72079 27.1863 4.56673C28.2751 4.21825 29.3725 3.90035 30.4589 3.54454C33.0231 2.70332 35.5139 4.58018 35.3854 7.17843C35.3438 8.03066 35.3793 8.88655 35.3793 9.74122C35.3793 10.5466 35.7659 11.0695 36.5391 11.31C37.5716 11.6328 38.6152 11.9262 39.6294 12.2967C41.9049 13.1281 42.7074 15.73 41.3042 17.6986C40.6313 18.6425 39.9205 19.5596 39.2036 20.4693C38.9088 20.8434 38.9002 21.1491 39.1987 21.5257C39.863 22.362 40.4967 23.2204 41.1415 24.0726C42.8004 26.2649 41.9611 28.9548 39.3382 29.8169C38.2677 30.169 37.185 30.4857 36.1085 30.8207C35.4784 31.0163 35.3805 31.1484 35.3793 31.794C35.3793 32.8467 35.383 33.8995 35.3793 34.9522C35.3683 37.4759 33.1332 39.1816 30.6913 38.5079C29.5462 38.1924 28.417 37.8158 27.2805 37.4686C26.5734 37.2521 26.4107 37.3059 25.9568 37.9014C25.328 38.7267 24.7053 39.5557 24.074 40.3786C22.4127 42.5428 19.5793 42.5379 17.9167 40.3664C17.2586 39.5068 16.5955 38.6497 15.9532 37.7779C15.6535 37.372 15.295 37.2815 14.8326 37.427C13.6398 37.8011 12.4531 38.1961 11.2481 38.5238C9.26374 39.0654 7.18276 37.9087 6.75091 35.9744C6.56985 35.1674 6.62123 34.3103 6.5674 33.4752C6.58453 33.4752 6.60043 33.4728 6.61756 33.4715L6.61634 33.474ZM14.2478 29.3608C14.5977 29.3755 14.9561 29.115 15.2914 28.7788C19.78 24.2878 24.271 19.8017 28.762 15.3131C28.8587 15.2165 28.9615 15.1224 29.0446 15.0135C29.4141 14.5342 29.4704 14.0011 29.2196 13.4644C28.9651 12.919 28.5063 12.65 27.8983 12.6452C27.4396 12.6415 27.086 12.8445 26.7691 13.1611C22.2267 17.7059 17.6818 22.2471 13.137 26.7882C13.0831 26.842 13.0269 26.8946 12.9792 26.9533C12.5865 27.4399 12.5192 27.9828 12.7773 28.5391C13.0305 29.0857 13.4905 29.3547 14.249 29.3596L14.2478 29.3608ZM18.6287 15.263C18.6373 13.6319 17.3393 12.3175 15.7171 12.3114C14.1059 12.3065 12.7712 13.6368 12.7724 15.2434C12.7736 16.8378 14.0802 18.1535 15.6755 18.1645C17.3099 18.1767 18.6202 16.8892 18.6287 15.2617V15.263ZM23.3669 26.7772C23.3718 28.4022 24.6906 29.7068 26.3128 29.6934C27.9057 29.6799 29.2159 28.3643 29.2233 26.7723C29.2306 25.1608 27.9044 23.8378 26.2859 23.839C24.6576 23.8403 23.362 25.1437 23.3681 26.7772H23.3669Z" fill="#A3B382"/>
</g>
<defs>
<clipPath id="clip0_587_1241">
<rect width="42" height="42" fill="white"/>
</clipPath>
</defs>
</svg>
