<svg width="43" height="35" viewBox="0 0 43 35" fill="#F9C194" xmlns="http://www.w3.org/2000/svg">
<path d="M22.2241 35C18.7149 34.9525 15.9326 34.8287 13.2568 33.9646C12.377 33.6807 11.5423 33.2293 10.7315 32.7754C10.1186 32.4327 9.91933 31.8387 10.0284 31.1272C10.4206 28.5549 10.6851 25.9589 11.1952 23.4116C12.0449 19.1774 15.9489 16.0649 20.2828 16.0199C21.8419 16.0036 23.4072 15.9136 24.945 16.3175C28.6748 17.2991 31.4571 20.4329 31.9973 24.2819C32.3156 26.5504 32.6252 28.82 32.9723 31.0834C33.0952 31.8837 32.8057 32.4427 32.1677 32.8766C31.1175 33.5919 29.9356 33.9871 28.7124 34.2622C27.8765 34.4498 27.0305 34.6273 26.1783 34.7111C24.6242 34.8624 23.0638 34.9412 22.2241 35Z" fill="inherit"/>
<path d="M21.4937 15C17.3411 14.9962 13.995 11.6433 14 7.48879C14.0038 3.35681 17.4025 -0.0236725 21.5288 0.000124879C25.6551 0.0239223 28.9987 3.38186 29 7.50131C29.0013 11.6533 25.6476 15.0025 21.4937 15Z" fill="inherit"/>
<path d="M30.0013 17.1344C34.086 14.7802 39.6026 16.1636 41.8347 20.6025C42.4754 21.8768 42.5629 23.2804 42.9076 24.6237C43.2241 25.8541 42.7018 26.6356 41.7292 27.2802C40.3115 28.2197 38.7059 28.6211 37.0385 28.8293C36.3232 28.9183 35.5976 28.9246 34.8798 28.9948C34.5414 29.0274 34.4488 28.907 34.4025 28.5922C34.1374 26.766 33.8969 24.9348 33.5534 23.1236C33.1365 20.9286 32.0456 19.0535 30.4477 17.4593C30.3371 17.3489 30.1904 17.2724 30 17.1357L30.0013 17.1344Z" fill="inherit"/>
<path d="M12 17.1231C10.9902 18.1293 10.2046 19.2546 9.60252 20.5253C8.88125 22.049 8.63327 23.6943 8.42226 25.3547C8.28039 26.4687 8.13017 27.5827 7.9585 28.6917C7.93942 28.8145 7.75106 29.0025 7.64376 29C5.79111 28.9586 3.95276 28.7644 2.25867 27.9098C1.62681 27.5902 1.05575 27.1178 0.50258 26.6554C0.130618 26.3447 -0.0696685 25.8735 0.0221297 25.356C0.251029 24.069 0.385746 22.7432 0.77559 21.5102C2.30278 16.6833 7.8965 14.4991 11.9988 17.1218L12 17.1231Z" fill="inherit"/>
<path d="M8.58678 15C6.2045 15.0025 4.10017 13.5371 3.31708 11.3295C2.53144 9.11567 3.23585 6.68623 5.09649 5.20198C6.91398 3.75284 9.48664 3.60366 11.4996 4.81087C11.8207 5.00392 11.9006 5.18819 11.8245 5.56176C11.3422 7.9348 11.7039 10.1938 12.883 12.3136C13.0556 12.6245 13.0429 12.8163 12.8069 13.0833C11.7268 14.308 10.2405 14.9975 8.58678 14.9987V15Z" fill="inherit"/>
<path d="M31.4004 7.13556C31.356 6.80825 31.2964 6.15237 31.1695 5.51154C31.1023 5.1742 31.1974 5.0049 31.4777 4.83309C33.4881 3.60034 36.0692 3.74456 37.9159 5.2068C39.7588 6.66654 40.4691 9.12827 39.684 11.3379C38.8925 13.5639 36.7909 15.0186 34.367 14.9998C32.6687 14.9873 31.2849 14.3013 30.1713 13.0435C29.9608 12.8052 29.9494 12.6271 30.1092 12.3512C30.9818 10.8388 31.3788 9.19725 31.4004 7.13556Z" fill="inherit"/>
</svg>
