<svg width="16" height="16" viewBox="0 0 16 16" fill="none" xmlns="http://www.w3.org/2000/svg">
<g clip-path="url(#clip0_879_77)">
<path d="M8.00576 1.8735e-06C3.59238 -0.00299006 0.0038409 3.57793 2.43945e-06 7.98974C-0.00340953 12.405 3.57276 15.9919 7.98614 16C12.3995 16.0077 15.9915 12.4298 16 8.01753C16.0085 3.59588 12.426 0.00256639 8.00576 1.8735e-06ZM12.9412 9.91142C12.9407 10.3414 12.8768 10.762 12.7237 11.1646C12.35 12.1468 11.6033 12.6614 10.5942 12.8281C10.3276 12.8721 10.0538 12.888 9.78297 12.8892C8.53547 12.8952 7.28797 12.8957 6.04047 12.8901C5.54616 12.8875 5.06336 12.8029 4.61042 12.5969C3.70881 12.1866 3.25459 11.4493 3.10788 10.4991C3.07291 10.2739 3.0631 10.0431 3.06054 9.81439C3.05457 9.20703 3.05841 8.59882 3.05841 7.99103H3.07248C3.07248 7.25031 3.03665 6.50703 3.08144 5.76888C3.14157 4.78367 3.54291 3.96901 4.4539 3.48005C4.9384 3.21975 5.46598 3.1146 6.00933 3.11076C7.33659 3.10178 8.66427 3.10349 9.99195 3.11033C10.4197 3.11247 10.8411 3.18427 11.2424 3.34114C12.2285 3.72624 12.7335 4.48405 12.8921 5.50003C12.928 5.73041 12.9386 5.96677 12.9395 6.20057C12.9437 7.43752 12.9425 8.67447 12.9412 9.91142Z" fill="black"/>
<path d="M12.0307 6.22359C12.0302 6.04279 12.0196 5.86114 11.9987 5.68162C11.904 4.87124 11.3905 4.29037 10.601 4.11171C10.3946 4.06512 10.1792 4.04076 9.9677 4.03777C9.31175 4.02837 8.6558 4.03435 7.99985 4.03435V4.01768C7.8719 4.01768 7.74395 4.01554 7.616 4.01811C6.96602 4.03264 6.31391 4.0211 5.66649 4.07025C4.91842 4.1271 4.36525 4.50537 4.11874 5.23582C4.02704 5.50852 3.97799 5.80771 3.97415 6.09579C3.9588 7.32761 3.96648 8.55986 3.96904 9.79168C3.96904 9.95667 3.98055 10.1221 3.99932 10.2858C4.10551 11.2257 4.73929 11.863 5.6827 11.9318C6.29856 11.9766 6.91868 11.9796 7.53667 11.9775C8.46942 11.9745 9.40387 11.9796 10.3345 11.9271C11.0834 11.8852 11.6366 11.4932 11.8818 10.7636C11.9769 10.4811 12.0217 10.1699 12.0255 9.87118C12.0413 8.6556 12.0336 7.43917 12.0307 6.22359ZM8.02032 10.5999C6.57365 10.6055 5.40633 9.45616 5.3995 8.01918C5.39268 6.56766 6.54592 5.40423 7.99644 5.39995C9.44226 5.39525 10.6019 6.55869 10.6006 8.01234C10.5998 9.43522 9.44311 10.5948 8.02032 10.5999ZM10.6155 5.92953C10.3264 5.92867 10.0986 5.70385 10.0961 5.4162C10.0935 5.12512 10.3298 4.8909 10.6232 4.89474C10.9081 4.89816 11.1367 5.13068 11.1354 5.4162C11.1346 5.70043 10.9013 5.93038 10.6155 5.92953Z" fill="black"/>
<path d="M9.67756 7.99187C9.68481 8.91809 8.94015 9.67035 8.00826 9.67719C7.08191 9.68402 6.32957 8.93903 6.32232 8.00769C6.31507 7.08232 7.06144 6.32921 7.99205 6.3228C8.91925 6.31596 9.66989 7.05924 9.67756 7.99187Z" fill="black"/>
</g>
<defs>
<clipPath id="clip0_879_77">
<rect width="16" height="16" fill="white"/>
</clipPath>
</defs>
</svg>
