<svg width="25" height="21" viewBox="0 0 25 21" fill="#000000" xmlns="http://www.w3.org/2000/svg">
<path d="M22.5 0H2.5C1.125 0 0.0125 1.18125 0.0125 2.625L0 18.375C0 19.8188 1.125 21 2.5 21H22.5C23.875 21 25 19.8188 25 18.375V2.625C25 1.18125 23.875 0 22.5 0ZM22 5.57812L13.1625 11.3794C12.7625 11.6419 12.2375 11.6419 11.8375 11.3794L3 5.57812C2.6875 5.36813 2.5 5.01375 2.5 4.63313C2.5 3.75375 3.4125 3.22875 4.125 3.68812L12.5 9.1875L20.875 3.68812C21.5875 3.22875 22.5 3.75375 22.5 4.63313C22.5 5.01375 22.3125 5.36813 22 5.57812Z" fill="inherit"/>
</svg>
