<svg width="41" height="41" viewBox="0 0 41 41" fill="#F9C194" xmlns="http://www.w3.org/2000/svg">
<path d="M40.8185 0C40.9276 0.159991 40.8934 0.28554 40.8934 0.403311C40.8956 3.63425 40.8956 6.86407 40.8945 10.095C40.8945 10.5805 40.8901 10.5828 40.4624 10.3683C37.9106 9.08395 35.3577 7.80291 32.8103 6.50965C32.5137 6.35854 32.4156 6.35743 32.3969 6.73741C32.3473 7.77736 32.2525 8.81508 32.1842 9.85502C32.075 11.516 31.9692 13.1771 31.8689 14.8381C31.8138 15.7558 31.7708 16.6747 31.7179 17.669C31.3078 17.3924 30.9551 17.1613 30.6101 16.9202C28.0461 15.1303 25.4844 13.3371 22.9215 11.546C22.5412 11.2805 22.5412 11.2849 22.4145 11.7338C21.5514 14.7903 20.6806 17.8457 19.8274 20.9055C19.7304 21.2522 19.6312 21.1566 19.4317 21.0055C16.7586 18.979 14.08 16.9591 11.4025 14.9381C11.3717 14.9147 11.3331 14.9003 11.2669 14.8647C10.1007 17.9157 8.93778 20.9566 7.77596 23.9976C7.604 23.9587 7.53235 23.8332 7.44086 23.7409C5.08745 21.3722 2.73515 19.0012 0.385045 16.6291C0.293554 16.5369 0.111675 16.4513 0.154665 16.3224C0.20978 16.158 0.410398 16.2258 0.551492 16.2158C2.11786 16.1102 3.67651 15.9458 5.23516 15.7458C8.05925 15.3825 10.8437 14.8259 13.5961 14.1048C17.5302 13.0748 21.3464 11.706 25.0446 10.0006C28.9202 8.214 32.5964 6.07745 36.0885 3.61869C37.5876 2.56319 39.036 1.44103 40.4492 0.273319C40.5616 0.17999 40.6862 0.0999946 40.8196 0.00333315L40.8185 0Z" fill="inherit"/>
<path d="M39.9992 32.4893C40.3255 32.376 40.6617 32.4316 40.9946 32.4049C41.0277 32.5616 40.9164 32.6416 40.8535 32.736C39.0535 35.4225 37.2457 38.1035 35.4545 40.7956C35.245 41.1111 35.1734 41.0311 35.0213 40.7656C33.5309 38.1735 32.0263 35.5892 30.5393 32.9949C30.3607 32.6838 30.2715 32.6138 29.9959 32.9215C27.9081 35.2625 25.8016 37.5869 23.7006 39.9167C23.5662 40.0656 23.4273 40.2112 23.2498 40.4011C22.0726 37.3146 20.9129 34.277 19.7291 31.1761C16.9039 33.5471 14.1118 35.8903 11.2755 38.2701C11.0187 36.9836 10.7718 35.7536 10.5282 34.5237C10.0939 32.3327 9.65736 30.1428 9.23188 27.9507C9.1448 27.5007 8.9552 27.7696 8.80859 27.8774C6.46621 29.5895 4.12823 31.3072 1.78805 33.0227C1.68113 33.1015 1.572 33.1771 1.40776 33.2938C0.934875 29.7528 0.468603 26.2608 -0.000976562 22.7432C0.242631 22.7499 0.378214 22.8954 0.530331 22.9888C5.20187 25.8597 10.1413 28.1318 15.3684 29.7662C18.7238 30.8161 22.1431 31.5838 25.622 32.0683C27.5124 32.3316 29.4106 32.5438 31.3219 32.5949C31.4267 32.5982 31.5314 32.6305 31.6361 32.6482C31.5711 32.7527 31.4443 32.736 31.355 32.7927C31.1577 32.9182 31.0805 33.0671 31.2205 33.2993C32.0825 34.7348 32.8993 36.1958 33.7481 37.6391C34.1923 38.3946 34.62 39.1612 35.0444 39.9278C35.1822 40.1767 35.2803 40.2067 35.46 39.9478C36.6306 38.2613 37.7759 36.558 38.8892 34.8326C39.2265 34.3093 39.5914 33.8048 39.9651 33.3104C40.1855 33.0182 40.2495 32.7727 39.9981 32.486L39.9992 32.4893Z" fill="inherit"/>
<path d="M39.9992 32.4893C40.3784 32.726 40.4116 32.8638 40.1846 33.1838C38.9202 34.9603 37.7121 36.7758 36.5348 38.6112C36.1501 39.2101 35.707 39.7701 35.2826 40.3589C34.9894 40.1734 34.8472 39.859 34.7138 39.5856C34.3269 38.7957 33.854 38.0579 33.4242 37.2946C32.9865 36.5169 32.5401 35.7436 32.097 34.9681C31.806 34.4604 31.515 33.9504 31.2162 33.4471C31.1259 33.2938 30.912 33.1849 31.0432 32.9627C31.1744 32.7404 31.3629 32.606 31.6384 32.6505C34.4283 32.7104 37.2161 32.6849 40.0005 32.4882L39.9992 32.4893Z" fill="inherit"/>
<path d="M35.9197 24.7675C35.1591 24.762 34.5308 24.1342 34.5264 23.3743C34.5209 22.5999 35.1646 21.9433 35.9329 21.9388C36.6957 21.9355 37.3538 22.5999 37.3472 23.3665C37.3395 24.1498 36.7056 24.7731 35.9208 24.7664L35.9197 24.7675Z" fill="inherit"/>
<path d="M10.5592 4.8964C10.557 5.68969 9.93423 6.30966 9.14608 6.30299C8.36014 6.29632 7.75167 5.66747 7.76159 4.86974C7.77151 4.09422 8.37998 3.48759 9.15159 3.48426C9.94084 3.48203 10.5614 4.10422 10.5592 4.89529V4.8964Z" fill="inherit"/>
<path d="M3.51994 39.6823C2.734 39.6834 2.11782 39.0579 2.12333 38.2635C2.12884 37.4869 2.7329 36.8769 3.50561 36.8691C4.28714 36.8613 4.92868 37.4891 4.93419 38.269C4.9397 39.0434 4.30147 39.6812 3.51884 39.6823H3.51994Z" fill="inherit"/>
</svg>
