<svg width="22" height="23" viewBox="0 0 22 23" fill="#000000" xmlns="http://www.w3.org/2000/svg">
<path d="M19.8444 15.6844L16.7337 15.3131C15.9867 15.2235 15.2519 15.4924 14.7252 16.0429L12.4718 18.3988C9.00595 16.5551 6.16468 13.5974 4.40113 9.96121L6.6668 7.59254C7.19341 7.04199 7.4506 6.27377 7.36487 5.49275L7.00971 2.26624C6.86275 0.973075 5.82176 0 4.57258 0H2.45387C1.06998 0 -0.0812292 1.20354 0.00449886 2.65035C0.653583 13.5846 9.0182 22.3167 19.4648 22.9953C20.8487 23.0849 21.9999 21.8814 21.9999 20.4346V18.2195C22.0121 16.9264 21.0814 15.8381 19.8444 15.6844Z" fill="inherit"/>
</svg>
