<svg width="37" height="48" viewBox="0 0 37 48" fill="none" xmlns="http://www.w3.org/2000/svg">
<g clip-path="url(#clip0_587_1234)">
<path d="M36.9973 36.723V13.9673H0.722314V14.0087C0.722314 14.0087 0.711198 14.0074 0.705022 14.0074C0.343137 14.0024 0.0467119 14.2853 0.00965883 14.6822C-0.00516241 14.8374 0.00348331 14.9951 0.00348331 15.1504V36.609C0.00348331 39.5447 0.0010131 42.4804 0.00471841 45.4173C0.00718862 46.6254 0.627211 47.493 1.75239 47.8986C1.82032 47.9224 1.88208 47.9662 1.9463 48H35.0545C35.0891 47.9725 35.1187 47.9324 35.1582 47.9186C36.4403 47.4542 36.9961 46.6592 36.9973 45.2759C36.9985 43.7148 36.9985 42.1524 36.9961 40.5913C36.9948 40.0342 36.7503 39.7162 36.3254 39.7025H36.3032V37.8084C36.7836 37.8096 36.9973 37.4779 36.9973 36.723ZM14.6506 21.0055C14.737 20.8578 14.8803 20.7463 15.0742 20.685C15.2607 20.6262 15.467 20.6199 15.6646 20.6199C20.3148 20.6174 24.9637 20.6174 29.6126 20.6199C29.8102 20.6199 30.019 20.6237 30.203 20.6862C30.3932 20.7513 30.5315 20.859 30.6168 20.9992C30.7032 21.1419 30.7341 21.321 30.7094 21.525C30.6612 21.9118 30.4241 22.1384 30.0474 22.1973C29.8967 22.2211 29.7398 22.2098 29.5867 22.211H15.6844C15.5312 22.2098 15.3743 22.2198 15.2237 22.1973C14.8198 22.1347 14.5876 21.8705 14.5555 21.4749C14.5407 21.2972 14.574 21.1369 14.6506 21.0055ZM30.7131 30.7577C30.6933 31.1696 30.4661 31.4212 30.0634 31.4876C29.8979 31.5151 29.7263 31.5088 29.557 31.5088C27.2449 31.5101 24.9328 31.5088 22.6207 31.5088C20.3086 31.5088 18.0273 31.5101 15.7301 31.5076C15.546 31.5076 15.3571 31.5151 15.178 31.4826C14.7938 31.4124 14.5814 31.1458 14.5542 30.7702C14.5407 30.5874 14.5777 30.4235 14.6605 30.2908C14.7481 30.1493 14.889 30.0429 15.0779 29.9803C15.2496 29.9252 15.4423 29.9189 15.6251 29.9189C20.295 29.9152 24.9662 29.9152 29.6361 29.9177C29.8041 29.9177 29.9794 29.9202 30.14 29.964C30.3611 30.0228 30.5217 30.1368 30.6143 30.2983C30.6884 30.4235 30.7217 30.5774 30.7131 30.7577ZM5.84552 19.8412C6.09254 19.681 6.34698 19.6885 6.57794 19.8525C6.69651 19.9364 6.81014 20.0628 6.91389 20.2281C7.00529 20.3758 7.09668 20.5235 7.18808 20.675C7.32641 20.9003 7.46845 21.1344 7.6216 21.3861C8.81842 19.9263 9.9683 18.5242 11.1182 17.1209C11.1972 17.0257 11.2713 16.9231 11.3603 16.8392C11.6493 16.5713 11.9655 16.5412 12.2816 16.7778C12.583 17.0019 12.6374 17.4 12.4039 17.7343C12.2187 18.0009 12.0013 18.2451 11.7938 18.4967C10.6044 19.9489 9.41621 21.4011 8.2231 22.8495C7.70312 23.4805 7.24243 23.4429 6.81261 22.7406C6.44702 22.1447 6.0839 21.5475 5.72572 20.9479C5.44041 20.4709 5.48734 20.0716 5.84552 19.8412ZM5.83317 29.1277C6.07525 28.9637 6.33956 28.9675 6.573 29.1252C6.68416 29.2016 6.78791 29.3118 6.87931 29.4557C6.98429 29.6222 7.08804 29.79 7.19302 29.9628C7.32888 30.1843 7.46845 30.4147 7.6216 30.6638C8.80977 29.2166 9.95965 27.8133 11.1095 26.4111C11.1787 26.3273 11.2429 26.2396 11.3183 26.1608C11.6172 25.8503 12.0173 25.8165 12.3088 26.0744C12.5892 26.3223 12.6374 26.7066 12.3866 27.0396C12.0593 27.4727 11.7049 27.8846 11.3615 28.304C10.3092 29.5884 9.25811 30.8729 8.2021 32.1536C7.71547 32.7432 7.23996 32.7132 6.84349 32.0722C6.46061 31.4513 6.08266 30.8266 5.70966 30.1994C5.44164 29.7499 5.49228 29.3581 5.83317 29.1277ZM12.478 36.2285C12.4225 36.3537 12.3286 36.4638 12.2409 36.5715C10.9243 38.1802 9.60765 39.7888 8.28732 41.395C7.67718 42.1374 7.26219 42.1036 6.76321 41.2836C6.4075 40.699 6.04932 40.1168 5.70102 39.5297C5.43917 39.089 5.49846 38.6859 5.84429 38.4593C6.0876 38.2991 6.33956 38.3003 6.56559 38.4568C6.56559 38.4568 6.566 38.4573 6.56682 38.4581C6.68045 38.5357 6.78667 38.6521 6.88425 38.8061C6.98676 38.9689 7.08804 39.1329 7.19179 39.3019C7.32888 39.5247 7.46968 39.7563 7.6216 40.0054C8.77519 38.5983 9.88678 37.2425 10.9984 35.8892C11.1367 35.7215 11.2689 35.5437 11.4307 35.4035C11.6987 35.1719 12 35.1719 12.2755 35.3922C12.5484 35.6113 12.6225 35.903 12.478 36.2285ZM29.772 40.8166C27.3981 40.8217 25.0242 40.8192 22.6503 40.8192H15.714C15.5596 40.8192 15.404 40.8242 15.2533 40.8004C14.8309 40.7365 14.5394 40.4023 14.5456 40.0079C14.5468 39.8539 14.5913 39.7137 14.6679 39.5961C14.7988 39.3932 15.031 39.2568 15.3175 39.2343C15.4707 39.2217 15.6263 39.2267 15.7795 39.2267C20.358 39.2255 24.9353 39.2255 29.5138 39.2255C29.6064 39.2255 29.6991 39.2242 29.7917 39.2267C30.1919 39.2368 30.4698 39.3632 30.6094 39.5935C30.6835 39.7112 30.7193 39.8564 30.718 40.028C30.7119 40.5199 30.3734 40.8154 29.772 40.8166Z" fill="#A3B382"/>
<path d="M36.9952 7.99993C36.9878 6.49015 35.9528 5.44983 34.4583 5.43981C33.5184 5.4323 32.5785 5.43856 31.6386 5.43731H31.1593C31.1593 4.42203 31.1816 3.47059 31.1532 2.5204C31.1211 1.44002 30.611 0.636307 29.6216 0.214419C28.6681 -0.191193 27.7739 -0.010921 27.002 0.683879C26.4252 1.20216 26.1881 1.87943 26.1893 2.65185C26.1905 3.56698 26.1893 4.48212 26.1893 5.40601H20.9846C20.9846 4.42453 21.008 3.47309 20.9796 2.52291C20.9463 1.44378 20.4386 0.637559 19.4493 0.215671C18.4958 -0.191193 17.6016 -0.0121729 16.8284 0.682627C16.2529 1.19966 16.0145 1.87693 16.0157 2.64935C16.0157 3.56448 16.0157 4.48086 16.0157 5.40726H10.811C10.811 4.42578 10.8283 3.4756 10.8061 2.52666C10.7777 1.23221 9.88716 0.216923 8.65823 0.0341471C7.50711 -0.137362 6.34858 0.57872 5.99164 1.72921C5.88295 2.07849 5.85701 2.46407 5.84837 2.83338C5.82737 3.68716 5.84096 4.54095 5.84096 5.43981C4.66143 5.43981 3.53996 5.42729 2.41972 5.44232C1.06975 5.46109 0.0273239 6.52019 0.00879733 7.89101C-0.00725902 9.03149 0.00262181 10.172 0.00756223 11.3124C0.00879733 11.4476 0.0260888 11.5929 0.0791982 11.7143H36.9989C37.0002 10.4762 37.0014 9.23805 36.9952 7.99993ZM9.42276 7.78711C9.41905 8.56954 8.97194 9.05903 8.30252 9.04526C7.65285 9.03149 7.23662 8.54951 7.23045 7.7846C7.22674 7.39276 7.22674 7.00092 7.22674 6.60783C7.22674 6.14337 7.22921 5.67767 7.22921 5.21322C7.22921 4.3707 7.22304 3.52943 7.23045 2.68816C7.23662 1.93452 7.66644 1.43626 8.30375 1.42249C8.95959 1.40872 9.42029 1.91824 9.42276 2.68941C9.4277 3.99638 9.42893 5.3021 9.42646 6.60783C9.42523 7.00092 9.42399 7.39401 9.42276 7.78711ZM19.5975 7.78711C19.5901 8.56954 19.148 9.05903 18.4761 9.04526C17.8276 9.03149 17.4077 8.54951 17.4052 7.7846C17.404 7.39276 17.4028 7.00092 17.4015 6.60783C17.3991 5.30085 17.4003 3.99513 17.4052 2.68816C17.4077 1.93577 17.8412 1.43626 18.4785 1.42249C19.1331 1.40872 19.5901 1.91824 19.5975 2.68941C19.605 3.53193 19.5975 4.3732 19.5975 5.21572C19.5975 5.68018 19.6 6.14337 19.6 6.60783C19.6 7.00092 19.6 7.39401 19.5963 7.78711H19.5975ZM29.7748 6.60783C29.7748 6.99967 29.7748 7.39151 29.7711 7.78335C29.7649 8.56704 29.324 9.05653 28.6546 9.04526C28.0049 9.03399 27.5825 8.55201 27.5788 7.78836C27.5775 7.39527 27.5763 7.00092 27.5751 6.60783C27.5726 5.3021 27.5738 3.99763 27.5788 2.69191C27.5825 1.91949 28.0407 1.40998 28.6953 1.42249C29.3339 1.43501 29.7649 1.93327 29.7711 2.68565C29.7785 3.5432 29.7736 4.40074 29.7736 5.25829C29.7736 5.70772 29.7748 6.15715 29.7748 6.60783Z" fill="#A3B382"/>
</g>
<defs>
<clipPath id="clip0_587_1234">
<rect width="37" height="48" fill="white"/>
</clipPath>
</defs>
</svg>
