<svg width="50" height="45" viewBox="0 0 50 45" fill="#F9C194" xmlns="http://www.w3.org/2000/svg">
<path d="M0 26.2249C0.126526 25.4575 0.229573 24.6849 0.384796 23.9228C1.81963 16.8648 7.67114 11.3273 14.8036 10.2618C14.8975 10.2475 14.9888 10.2174 15.1792 10.1703C14.9979 10.0278 14.8714 9.94417 14.7644 9.83959C13.764 8.86568 12.6931 7.9519 11.7891 6.89432C10.8982 5.85504 10.4273 4.59353 10.713 3.17123C11.0078 1.70709 11.8765 0.700497 13.2761 0.223345C14.6992 -0.261651 16.001 0.0481712 17.1358 1.03908C17.2323 1.12274 17.3276 1.21033 17.4423 1.3136C18.0463 0.699189 18.7337 0.250797 19.5776 0.0952327C21.0829 -0.183215 22.3599 0.258641 23.3356 1.42864C24.3022 2.58819 24.4678 3.92291 23.9643 5.33475C23.5665 6.44985 22.8504 7.36101 22.0129 8.1689C21.3007 8.85653 20.5377 9.48924 19.7589 10.1808C20.2116 10.2697 20.6499 10.3481 21.0829 10.4435C28.1423 12.011 33.4577 17.5394 34.6277 24.6418C35.3582 29.0799 34.4947 33.2292 32.0646 37.0333C31.9263 37.249 31.805 37.4137 31.4959 37.3732C29.975 37.1745 28.5532 36.7091 27.224 35.8437C27.3114 35.7182 27.387 35.6006 27.4718 35.4894C33.4107 27.8066 29.2784 16.7589 19.772 14.9039C12.7191 13.5274 5.72237 18.5617 4.76756 25.698C3.83231 32.6906 8.42116 39.0099 15.3592 40.159C16.3636 40.325 17.0249 40.7211 17.7058 41.4349C18.688 42.465 19.8411 43.333 20.9225 44.269C21.0177 44.3514 21.1181 44.4259 21.2133 44.6377C20.2259 44.7527 19.2411 44.9227 18.2511 44.975C9.44642 45.4325 1.57832 39.006 0.210007 30.2617C0.133048 29.7662 0.0704372 29.2669 0 28.7688C0 27.9204 0 27.0733 0 26.2249Z" fill="inherit"/>
<path d="M22.7892 19.2233C21.3374 20.9933 20.4191 22.9412 19.9795 25.1269C18.606 31.9391 23.2561 38.8467 30.0911 40.1199C37.2327 41.4507 43.8916 36.8452 45.183 29.6814C46.4326 22.7542 41.5372 15.8898 34.5756 14.8871C33.643 14.7525 33.0169 14.389 32.3777 13.7171C31.3968 12.6844 30.2555 11.8033 29.1794 10.862C29.0476 10.747 28.8989 10.6529 28.6981 10.5051C30.0442 10.1731 31.3434 10.0568 32.6556 10.0672C41.202 10.1352 48.4114 16.3277 49.7797 24.7779C51.2954 34.1405 44.8712 43.1593 35.5657 44.732C26.1845 46.3177 17.3798 40.3409 15.4767 31.0122C14.5415 26.425 15.3659 22.1084 17.852 18.1213C18.0764 17.7605 18.3125 17.6494 18.7181 17.7108C20.166 17.9304 21.5187 18.3932 22.7905 19.2246L22.7892 19.2233Z" fill="inheirt"/>
</svg>
