<svg width="42" height="42" viewBox="0 0 42 42" fill="none" xmlns="http://www.w3.org/2000/svg">
<g clip-path="url(#clip0_587_1243)">
<path d="M21 0C9.40213 0 0 9.40152 0 20.9996C0 32.5977 9.40213 42 21 42C32.5979 42 42 32.5977 42 20.9996C42 9.40152 32.5979 0 21 0ZM28.942 35.002C28.5211 35.2529 28.0742 35.4614 27.6305 35.6699C27.4834 35.7391 27.3095 35.7502 27.1482 35.7871C26.5731 35.7517 26.0988 35.382 25.9461 34.8289C25.8006 34.3018 26.0177 33.7298 26.5063 33.4521C26.9232 33.2153 27.3536 32.9966 27.7934 32.8046C28.4046 32.5363 29.1009 32.8015 29.3959 33.3844C29.6886 33.9635 29.5092 34.6637 28.942 35.002ZM34.0399 30.4475C33.7481 30.9125 33.383 31.3421 32.9983 31.7354C32.5538 32.1902 31.8143 32.1697 31.3454 31.7535C30.8679 31.3295 30.768 30.6293 31.1448 30.1085C31.4319 29.7112 31.7506 29.3343 32.0739 28.9653C32.3052 28.7018 32.6168 28.5845 32.9708 28.5908C33.9251 28.594 34.5482 29.6404 34.0399 30.4475ZM36.7738 24.3141C36.6818 24.8365 36.5488 25.3566 36.3749 25.8569C36.172 26.4415 35.5622 26.7216 34.9179 26.5886C34.3774 26.4769 33.9786 25.9576 33.9841 25.1575C34.1013 24.7563 34.228 24.1379 34.4656 23.5644C34.6921 23.0152 35.3608 22.7926 35.932 22.9759C36.5047 23.16 36.8808 23.7123 36.7738 24.3141ZM33.0164 16.5986C31.7813 16.6112 30.5461 16.6049 29.3109 16.5994C28.5203 16.5962 27.9633 16.0613 27.9712 15.3288C27.9782 14.6121 28.5329 14.0936 29.3102 14.0897C30.4092 14.0842 31.5075 14.0881 32.6789 14.0881C32.4917 13.7978 32.3438 13.5405 32.1699 13.3014C29.2645 9.31262 25.3404 7.31588 20.4092 7.45591C17.1907 7.54718 14.364 8.74617 11.9621 10.9065C9.76245 12.8852 8.31252 15.3123 7.72877 18.2161C6.94362 22.1207 7.68943 25.7271 10.0402 28.9559C12.0809 31.759 14.8156 33.5363 18.2119 34.2727C19.4045 34.5307 20.6114 34.6165 21.8308 34.5386C22.0896 34.5213 22.3579 34.5142 22.6096 34.5661C23.2091 34.6888 23.6135 35.2577 23.5679 35.8603C23.5222 36.4677 23.0431 36.9554 22.435 37.016C22.2281 37.0373 22.0212 37.0585 21.8143 37.079H20.0559C19.6319 37.0286 19.2063 36.9853 18.783 36.9255C15.6125 36.4779 12.8086 35.2112 10.4091 33.0918C7.58322 30.5954 5.81467 27.4894 5.16484 23.765C5.05942 23.1608 4.99884 22.5487 4.91702 21.9405V20.0555C4.99884 19.4474 5.05942 18.8345 5.16484 18.2303C5.81546 14.5051 7.58401 11.3983 10.4123 8.90194C12.8126 6.78247 15.6149 5.49536 18.7901 5.07367C22.7733 4.54498 26.463 5.38679 29.8341 7.57786C31.6562 8.7619 33.1635 10.2716 34.3727 12.0788C34.4168 12.1441 34.4679 12.2055 34.5663 12.3353V11.9584C34.5663 10.964 34.5631 9.96954 34.567 8.97511C34.571 8.17893 35.0957 7.61877 35.825 7.62034C36.5535 7.62192 37.0751 8.18207 37.0775 8.97983C37.0814 10.1631 37.0877 11.3463 37.0775 12.5288C37.057 14.8347 35.3231 16.5734 33.0172 16.5986H33.0164ZM19.7428 11.0733C19.7428 10.4243 20.0473 9.95302 20.5752 9.76656C21.4122 9.47154 22.2454 10.0734 22.2517 10.9962C22.2611 12.587 22.254 14.1786 22.254 15.7694V15.9889C22.254 17.6111 22.2493 19.2342 22.258 20.8564C22.2603 21.3033 22.1109 21.6675 21.797 21.9807C20.196 23.577 18.6013 25.1803 16.9979 26.7735C16.2285 27.5382 15.0728 27.2754 14.8124 26.281C14.685 25.7916 14.8431 25.3747 15.194 25.0238C15.7124 24.5061 16.2301 23.9876 16.7485 23.4692C17.6588 22.5589 18.5651 21.6439 19.4832 20.7423C19.6681 20.5606 19.7491 20.382 19.7483 20.1169C19.7381 17.1029 19.7412 14.0881 19.7428 11.0733Z" fill="#A3B382"/>
</g>
<defs>
<clipPath id="clip0_587_1243">
<rect width="42" height="42" fill="white"/>
</clipPath>
</defs>
</svg>
